<svg xmlns="http://www.w3.org/2000/svg" viewBox="0 0 854 290">
  <title>xEdit</title>
  <path id="mark" d="M 272.500 1.678 C 254.317 3.969, 231.903 10.573, 215.500 18.473 C 181.333 34.928, 160.333 58.815, 151.297 91.500 L 148.533 101.500 148.227 192.941 C 147.933 280.716, 147.992 284.322, 149.710 282.872 C 160.747 273.557, 164.358 270.721, 169.500 267.326 C 193.166 251.703, 222.406 241.070, 262.500 233.506 C 284.003 229.450, 291.174 225.333, 296.394 214.051 C 298.484 209.534, 298.502 208.763, 298.757 111.351 C 298.958 34.653, 298.740 12.368, 297.757 9.387 C 295.315 1.979, 287.951 -0.269, 272.500 1.678 M 8.212 58.129 C 6.197 58.710, 4.166 60.320, 2.966 62.288 C 1.062 65.410, 1.008 67.852, 1.014 149.500 L 1.020 233.500 3.367 238.541 C 7.768 247.993, 15.007 251.712, 35.351 254.976 C 71.165 260.721, 103.784 271.320, 124.302 283.879 L 130.770 287.838 131.164 284.169 C 131.380 282.151, 131.544 248.100, 131.528 208.500 C 131.500 136.875, 131.488 136.453, 129.219 127.540 C 122.031 99.307, 104.967 81.605, 72.472 68.670 C 52.587 60.755, 18.496 55.163, 8.212 58.129" fill="#48478f" fill-rule="evenodd"/>
  <path id="wordmark" d="M 745.094 80.292 C 733.662 83.941, 729.580 99.656, 737.809 108.339 C 746.405 117.410, 761.676 115.499, 766.904 104.698 C 773.964 90.113, 760.728 75.301, 745.094 80.292 M 684.617 81.555 C 684.278 82.440, 684 97.387, 684 114.772 L 684 146.380 680.750 143.028 C 666.629 128.466, 640.569 125.553, 619.077 136.134 C 584.199 153.304, 576.449 208.380, 604.907 236.838 C 625.274 257.205, 658.118 259.411, 679.250 241.832 L 684 237.881 684 243.240 C 684 246.188, 684.540 249.140, 685.200 249.800 C 686.996 251.596, 711.377 251.455, 712.883 249.641 C 713.706 248.650, 713.942 225.540, 713.756 164.391 L 713.500 80.500 699.367 80.223 C 687.139 79.984, 685.151 80.163, 684.617 81.555 M 474.610 86.573 C 473.502 89.462, 473.913 246.970, 475.035 249.066 C 476.038 250.939, 477.669 251, 526.835 251 C 564.986 251, 577.898 250.702, 578.800 249.800 C 580.459 248.141, 580.459 224.859, 578.800 223.200 C 577.911 222.311, 568.311 222, 541.800 222 L 506 222 506 201.014 L 506 180.028 538.250 179.764 L 570.500 179.500 570.500 166 L 570.500 152.500 538.250 152.236 L 506 151.972 506 132.486 L 506 113 541.878 113 C 571.294 113, 577.963 112.750, 578.909 111.609 C 579.680 110.680, 579.970 106.118, 579.782 97.859 L 579.500 85.500 527.360 85.241 C 480.464 85.008, 475.159 85.142, 474.610 86.573 M 795.227 100.173 C 794.365 101.035, 794 105.948, 794 116.700 L 794 132 787.250 132.015 C 777.666 132.037, 777.887 131.705, 778.217 145.580 L 778.500 157.500 786.191 157.791 L 793.882 158.082 794.191 192.818 L 794.500 227.554 798 234.489 C 804.334 247.037, 812.638 251.076, 833.500 251.757 C 841.456 252.017, 847.579 251.763, 849.281 251.104 L 852.062 250.026 851.781 237.763 L 851.500 225.500 842 224.978 C 824.646 224.024, 824.500 223.705, 824.500 186.500 L 824.500 158.500 838 158 L 851.500 157.500 851.780 145.898 C 851.992 137.129, 851.733 134.023, 850.717 133.180 C 849.933 132.529, 844.192 131.947, 836.936 131.782 L 824.500 131.500 824 115.500 L 823.500 99.500 809.977 99.223 C 800.307 99.025, 796.104 99.296, 795.227 100.173 M 344.955 133.554 C 343.529 135.272, 341.809 132.560, 367.350 168.864 L 380.974 188.228 378.774 191.364 C 377.564 193.089, 368.091 206.330, 357.721 220.789 C 346.875 235.914, 339.008 247.805, 339.198 248.789 C 339.492 250.318, 341.218 250.500, 355.428 250.500 L 371.329 250.500 378.136 241 C 395.280 217.072, 400.498 210.004, 400.980 210.053 C 401.266 210.082, 407.805 219.195, 415.511 230.303 L 429.521 250.500 444.617 250.775 C 464.640 251.140, 464.591 251.197, 455.606 238.206 C 451.914 232.868, 443.027 220.175, 435.858 210 C 428.689 199.825, 422.424 190.763, 421.936 189.862 C 421.254 188.601, 425.190 182.541, 439.019 163.557 C 460.272 134.382, 459.503 135.645, 457.344 133.486 C 455.876 132.019, 442.087 131.779, 426.929 132.956 C 426.616 132.980, 420.766 140.894, 413.929 150.542 C 401.816 167.637, 401.462 168.026, 400 165.832 C 390.784 152, 377.466 133.784, 375.992 132.996 C 372.734 131.252, 346.473 131.725, 344.955 133.554 M 737.680 133.250 C 736.106 134.406, 735.998 138.861, 736.239 192.500 L 736.500 250.500 749.862 250.780 C 758.861 250.968, 763.677 250.683, 764.612 249.907 C 766.837 248.061, 766.660 135.803, 764.429 133.571 C 762.395 131.538, 740.371 131.273, 737.680 133.250 M 638.500 158.972 C 620.518 166.112, 612.754 188.390, 621.485 207.800 C 632.766 232.884, 668.295 232.460, 680.753 207.093 C 684.823 198.806, 684.821 183.007, 680.750 175.283 C 677.233 168.612, 672.297 163.700, 665.717 160.323 C 658.584 156.662, 645.902 156.033, 638.500 158.972" fill="#25262d" fill-rule="evenodd"/>
</svg>
